<svg viewBox="0 0 576 512" xmlns="http://www.w3.org/2000/svg"><path id="path1" d="M 80,96 C 35.800088,96 0,131.80008 0,176 v 160 c 0,44.19992 35.800088,80 80,80 h 64.06372 l 31.5957,-64 H 80 c -8.799982,0 -16,-7.20002 -16,-16 V 176 c 0,-8.79998 7.200018,-16 16,-16 h 123.15552 l 80.23632,-64 z m 318.125,0 -31.57617,64 H 464 c 8.79998,0 16,7.20002 16,16 v 160 c 0,8.79998 -7.20002,16 -16,16 H 338.83789 l -78.23633,64 H 464 c 44.19992,0 80,-35.80008 80,-80 v -16 c 17.69996,0 32,-14.30004 32,-32 v -64 c 0,-17.69996 -14.30004,-32 -32,-32 v -16 c 0,-44.19992 -35.80008,-80 -80,-80 z" style="fill:#343a40;fill-opacity:1" /><!--! Font Awesome Pro 6.4.0 by @fontawesome - https://fontawesome.com License - https://fontawesome.com/license (Commercial License) Copyright 2023 Fonticons, Inc. --><path opacity="1" fill="#1e3050" d="m 343.93129,133.31145 c 3.42074,-7.94339 0.87011,-17.22026 -6.14589,-22.32253 -7.01574,-5.10221 -16.58236,-4.63837 -23.13421,1.04461 l -148.4294,129.8757 c -5.79803,5.10227 -7.88529,13.27752 -5.16012,20.46709 2.72496,7.18958 9.68259,12.05991 17.39403,12.05991 h 64.64786 l -44.58673,104.01653 c -3.42089,7.9432 -0.87011,17.22001 6.14597,22.32227 7.01549,5.10244 16.58229,4.63844 23.13398,-1.04269 L 376.22616,269.85665 c 5.79804,-5.10228 7.88534,-13.27742 5.16031,-20.46694 -2.72513,-7.18957 -9.62466,-12.00201 -17.39403,-12.00201 h -64.64805 z" id="path2" style="stroke-width:0.579801;fill:#343a40;fill-opacity:1" /></svg>
