<svg height="16" width="20" xmlns="http://www.w3.org/2000/svg" viewBox="0 0 640 512"><!--!Font Awesome Free 6.5.1 by @fontawesome - https://fontawesome.com License - https://fontawesome.com/license/free Copyright 2023 Fonticons, Inc.--><path id="path1" style="fill:#dc3748;fill-opacity:1" d="m 320,24.5625 c -22.5,0 -40.77834,18.249973 -40.75,40.75 0,0 0.31879,142.54956 0,213.8125 0,22.5 18.25,40.75 40.75,40.75 22.5,0 40.75,-18.25 40.75,-40.75 V 65.3125 C 360.756,42.812473 342.5,24.5625 320,24.5625 Z m -81.6875,15 C 150.51131,55.746331 71.648855,97.386051 9.8125,156.6875 -2.8874746,168.98748 -3.3249756,189.20002 8.875,202 c 12.199976,12.79998 32.550026,13.17498 45.25,0.875 h 0.0625 c 49.37015,-47.36672 111.37381,-81.56087 180.4375,-97.25 l -0.0625,-40.8125 c -0.0111,-8.780038 1.29443,-17.277328 3.75,-25.25 z m 163.375,0 c 2.45852,7.972481 3.75249,16.4702 3.75,25.25 0,0 0.005,29.55203 0,40.8125 69.03981,15.6953 131.01901,49.89686 180.375,97.25 C 598.61248,215.07498 618.80002,214.69998 631,202 643.19998,189.30002 642.82498,169.01248 630.125,156.8125 568.36546,97.434236 489.48456,55.75046 401.6875,39.5625 Z M 234.75,204.9375 C 195.38218,217.11997 159.59356,237.40846 129.5,264 c -13.29998,11.69998 -14.51248,31.88752 -2.8125,45.1875 11.69998,13.29998 31.88752,14.51248 45.1875,2.8125 18.55978,-16.39838 39.88102,-29.70231 63.125,-39.25 -0.30012,-2.91293 -0.4375,-5.88275 -0.4375,-8.875 0,-2.18404 0.253,-4.35113 0.25,-6.5 z m 170.625,0 c -0.01,23.19413 0.002,43.95715 0,54.5 v 0.125 c 0.0714,1.42935 0.0625,2.8655 0.0625,4.3125 0,2.99225 -0.13738,5.96207 -0.4375,8.875 23.25763,9.54846 44.57332,22.84508 63.1875,39.25 13.29998,11.69998 33.48752,10.38748 45.1875,-2.8125 11.69998,-13.19998 10.44998,-33.48752 -2.75,-45.1875 -30.12374,-26.56582 -65.9174,-46.87595 -105.25,-59.0625 z M 318.1875,352 c -2.44745,0.0683 -4.88896,0.27696 -7.3125,0.625 -31.50697,4.53857 -54.88935,31.54282 -54.875,63.375 0,35.34625 28.65378,63.99997 64,63.99997 35.34622,0 64,-28.65372 64,-63.99997 0.0145,-36.06632 -29.76064,-65.02141 -65.8125,-64 z" /></svg>
